<?xml version="1.0" standalone="no"?>
<!DOCTYPE svg PUBLIC "-//W3C//DTD SVG 20010904//EN"
 "http://www.w3.org/TR/2001/REC-SVG-20010904/DTD/svg10.dtd">
<svg version="1.0" xmlns="http://www.w3.org/2000/svg"
 width="255.000000pt" height="255.000000pt" viewBox="0 0 255.000000 255.000000"
 preserveAspectRatio="xMidYMid meet">
<metadata>
Created by potrace 1.11, written by Peter Selinger 2001-2013
</metadata>
<g transform="translate(0.000000,255.000000) scale(0.100000,-0.100000)"
fill="#000000" stroke="none">
<path d="M189 1783 c-4 -30 -4 -120 -1 -130 3 -10 55 -13 216 -13 l213 0 -1
-352 -1 -353 83 -3 82 -3 0 356 0 355 160 0 160 0 0 -355 0 -355 80 0 80 0 0
341 c0 303 6 384 22 307 3 -13 36 -140 73 -283 37 -143 69 -267 70 -275 2 -8
4 -16 5 -17 2 -2 3 -6 4 -10 1 -5 5 -20 9 -35 l7 -28 120 0 119 0 11 43 c6 23
13 49 16 57 5 12 49 184 79 310 31 125 68 257 76 265 5 5 9 -156 9 -418 l0
-427 80 0 80 0 0 515 0 516 -142 -3 -142 -3 -8 -30 c-5 -16 -11 -41 -14 -55
-3 -14 -11 -45 -19 -70 -11 -36 -49 -179 -70 -270 -22 -88 -67 -246 -73 -252
-4 -4 -48 146 -98 335 l-90 342 -597 3 c-328 1 -597 -1 -598 -5z"/>
<path d="M2199 1085 c-1 -5 -2 -41 -3 -80 l-1 -70 85 -3 85 -3 -1 76 c-1 41
-2 79 -3 84 -1 12 -161 9 -162 -4z"/>
</g>
</svg>
